<svg xmlns="http://www.w3.org/2000/svg" width="400" height="798.876"><path d="M275.843.416c-86.972 6.547-144.327 60.623-156.907 147.937-2.651 18.402-2.83 24.227-2.831 92.377v58.521H0v142.697h116.105v356.928h142.696V441.948h111.222l.187-.843c.103-.464 4.07-32.191 8.815-70.506 4.746-38.314 8.713-70.042 8.816-70.505l.188-.843h-129.26l.138-55.524c.148-60.03.08-57.876 2.177-68.259 4.442-21.993 17.383-35.043 39.695-40.028 10.241-2.288 8.988-2.235 56.056-2.38l43.165-.134V5.366l-4.213-.459c-35.049-3.812-97.772-6.16-119.944-4.491" fill="#DFA233" fill-rule="evenodd"/></svg>