<svg xmlns="http://www.w3.org/2000/svg" width="400" height="280.075"><path d="M177.111.102C108.945.884 60.523 3.795 43.844 8.114 26.519 12.6 12.472 26.991 7.958 44.878-2.434 86.059-2.478 193.765 7.879 234.894c4.973 19.748 19.716 33.588 40.127 37.668 35.44 7.086 157.264 9.692 249.255 5.332 27.622-1.31 48.486-3.382 58.301-5.791 15.341-3.765 28.186-14.86 34.231-29.563 5.118-12.453 8.423-40.115 9.94-83.215.251-7.133.251-33.597-.001-40.826-1.528-43.917-5.058-70.574-10.998-83.05-7.073-14.853-19.953-24.649-36.839-28.018C327.115 2.487 250.217-.737 177.111.102m35.769 110.442c28.106 16.18 51.058 29.465 51.005 29.522-.052.057-23.161 13.386-51.352 29.621a58674.964 58674.964 0 00-51.745 29.815l-.488.297V80.275l.74.426c.407.233 23.735 13.663 51.84 29.843" fill="#DFA233" fill-rule="evenodd"/></svg>