<svg id="svg" version="1.1" xmlns="http://www.w3.org/2000/svg" xmlns:xlink="http://www.w3.org/1999/xlink" width="400" height="798.876404494382" viewBox="0, 0, 400,798.876404494382"><g id="svgg"><path id="path0" d="M275.843 0.416 C 188.871 6.963,131.516 61.039,118.936 148.353 C 116.285 166.755,116.106 172.580,116.105 240.730 L 116.105 299.251 58.052 299.251 L 0.000 299.251 0.000 370.599 L 0.000 441.948 58.052 441.948 L 116.105 441.948 116.105 620.412 L 116.105 798.876 187.453 798.876 L 258.801 798.876 258.801 620.412 L 258.801 441.948 314.412 441.948 L 370.023 441.948 370.210 441.105 C 370.313 440.641,374.280 408.914,379.025 370.599 C 383.771 332.285,387.738 300.557,387.841 300.094 L 388.029 299.251 323.399 299.251 L 258.769 299.251 258.907 243.727 C 259.055 183.697,258.987 185.851,261.084 175.468 C 265.526 153.475,278.467 140.425,300.779 135.440 C 311.020 133.152,309.767 133.205,356.835 133.060 L 400.000 132.926 400.000 69.146 L 400.000 5.366 395.787 4.907 C 360.738 1.095,298.015 -1.253,275.843 0.416 " stroke="none"  fill="#DFA233" fill-rule="evenodd"></path></g></svg>
