<svg id="svg" version="1.1" xmlns="http://www.w3.org/2000/svg" xmlns:xlink="http://www.w3.org/1999/xlink" width="400" height="400" viewBox="0, 0, 400,400"><g id="svgg"><path id="path0" d="M42.288 0.208 C 11.113 3.947,-8.178 36.296,3.232 65.701 C 15.644 97.689,56.396 106.912,81.028 83.309 C 105.394 59.960,99.362 19.649,69.292 4.878 C 61.207 0.906,51.075 -0.846,42.288 0.208 M293.952 126.329 C 262.483 128.808,236.802 143.671,223.206 167.276 C 222.274 168.895,221.985 169.256,221.584 169.305 L 221.097 169.364 221.097 151.067 L 221.097 132.771 181.247 132.771 L 141.397 132.771 141.397 266.385 L 141.397 400.000 182.935 400.000 L 224.473 400.000 224.474 330.286 C 224.475 260.496,224.501 257.296,225.139 250.352 C 228.172 217.359,241.971 201.504,269.386 199.513 C 295.389 197.624,310.509 209.967,315.125 236.851 C 317.062 248.133,317.100 249.957,317.107 332.161 L 317.112 400.000 358.561 400.000 L 400.009 400.000 399.947 318.097 C 399.900 256.780,399.827 235.345,399.658 232.818 C 399.022 223.322,398.596 218.606,397.833 212.658 C 390.608 156.280,363.535 129.567,310.415 126.400 C 307.533 126.228,295.873 126.178,293.952 126.329 M6.564 266.385 L 6.564 400.000 48.101 400.000 L 89.639 400.000 89.639 266.385 L 89.639 132.771 48.101 132.771 L 6.564 132.771 6.564 266.385 " stroke="none"  fill="#DFA233"  fill-rule="evenodd"></path></g></svg>
