<svg id="svg" version="1.1" xmlns="http://www.w3.org/2000/svg" xmlns:xlink="http://www.w3.org/1999/xlink" width="400" height="338.6779184247539" viewBox="0, 0, 400,338.6779184247539"><g id="svgg"><path id="path0" d="M369.245 0.198 C 367.098 0.464,364.309 1.064,362.025 1.753 C 358.949 2.680,18.652 132.634,16.034 133.882 C -5.493 144.137,-5.544 165.094,15.934 174.410 C 19.038 175.756,21.382 176.466,45.590 183.391 L 69.333 190.184 185.352 130.910 C 249.162 98.310,301.886 71.463,302.517 71.250 C 311.157 68.340,319.827 77.207,316.908 85.968 C 316.057 88.522,317.048 87.445,250.232 158.420 L 185.746 226.919 183.901 234.429 C 182.886 238.560,182.085 241.965,182.120 241.995 C 182.402 242.235,287.200 326.597,289.733 328.623 C 296.347 333.912,301.207 336.471,307.190 337.813 C 323.884 341.557,338.688 331.404,343.254 313.080 C 343.965 310.224,399.502 35.477,399.753 33.572 C 402.485 12.816,388.745 -2.215,369.245 0.198 M172.801 163.357 C 129.795 185.328,94.554 203.362,94.487 203.433 C 94.381 203.547,129.835 305.158,130.861 307.679 C 132.486 311.674,135.933 317.106,138.245 319.315 L 138.883 319.925 151.503 268.776 C 165.702 211.226,164.425 215.810,167.037 213.013 C 169.732 210.128,249.457 125.374,250.320 124.477 C 250.789 123.989,251.132 123.550,251.083 123.501 C 251.034 123.451,215.807 141.387,172.801 163.357 M175.731 267.552 C 175.370 268.905,160.525 329.123,160.525 329.234 C 160.525 329.396,163.926 329.121,165.655 328.819 C 171.393 327.818,177.304 325.060,182.278 321.062 C 183.458 320.114,210.501 295.288,210.694 294.976 C 210.769 294.855,177.031 267.514,176.146 266.979 C 175.995 266.888,175.857 267.078,175.731 267.552 " stroke="none"  fill="#DFA233"  fill-rule="evenodd"></path></g></svg>
