<svg id="svg" version="1.1" xmlns="http://www.w3.org/2000/svg" xmlns:xlink="http://www.w3.org/1999/xlink" width="400" height="280.07504690431523" viewBox="0, 0, 400,280.07504690431523"><g id="svgg"><path id="path0" d="M177.111 0.102 C 108.945 0.884,60.523 3.795,43.844 8.114 C 26.519 12.600,12.472 26.991,7.958 44.878 C -2.434 86.059,-2.478 193.765,7.879 234.894 C 12.852 254.642,27.595 268.482,48.006 272.562 C 83.446 279.648,205.270 282.254,297.261 277.894 C 324.883 276.584,345.747 274.512,355.562 272.103 C 370.903 268.338,383.748 257.243,389.793 242.540 C 394.911 230.087,398.216 202.425,399.733 159.325 C 399.984 152.192,399.984 125.728,399.732 118.499 C 398.204 74.582,394.674 47.925,388.734 35.449 C 381.661 20.596,368.781 10.800,351.895 7.431 C 327.115 2.487,250.217 -0.737,177.111 0.102 M212.880 110.544 C 240.986 126.724,263.938 140.009,263.885 140.066 C 263.833 140.123,240.724 153.452,212.533 169.687 C 184.341 185.921,161.056 199.338,160.788 199.502 L 160.300 199.799 160.300 140.037 L 160.300 80.275 161.040 80.701 C 161.447 80.934,184.775 94.364,212.880 110.544 " stroke="none"  fill="#DFA233"  fill-rule="evenodd"></path></g></svg>
