<svg xmlns="http://www.w3.org/2000/svg" width="400" height="400"><path d="M42.288.208C11.113 3.947-8.178 36.296 3.232 65.701c12.412 31.988 53.164 41.211 77.796 17.608 24.366-23.349 18.334-63.66-11.736-78.431C61.207.906 51.075-.846 42.288.208m251.664 126.121c-31.469 2.479-57.15 17.342-70.746 40.947-.932 1.619-1.221 1.98-1.622 2.029l-.487.059v-36.593h-79.7V400h83.076l.001-69.714c.001-69.79.027-72.99.665-79.934 3.033-32.993 16.832-48.848 44.247-50.839 26.003-1.889 41.123 10.454 45.739 37.338 1.937 11.282 1.975 13.106 1.982 95.31l.005 67.839h82.897l-.062-81.903c-.047-61.317-.12-82.752-.289-85.279-.636-9.496-1.062-14.212-1.825-20.16-7.225-56.378-34.298-83.091-87.418-86.258-2.882-.172-14.542-.222-16.463-.071M6.564 266.385V400h83.075V132.771H6.564v133.614" fill="#DFA233" fill-rule="evenodd"/></svg>