<svg xmlns="http://www.w3.org/2000/svg" width="400" height="338.678"><path d="M369.245.198c-2.147.266-4.936.866-7.22 1.555-3.076.927-343.373 130.881-345.991 132.129-21.527 10.255-21.578 31.212-.1 40.528 3.104 1.346 5.448 2.056 29.656 8.981l23.743 6.793 116.019-59.274c63.81-32.6 116.534-59.447 117.165-59.66 8.64-2.91 17.31 5.957 14.391 14.718-.851 2.554.14 1.477-66.676 72.452l-64.486 68.499-1.845 7.51c-1.015 4.131-1.816 7.536-1.781 7.566.282.24 105.08 84.602 107.613 86.628 6.614 5.289 11.474 7.848 17.457 9.19 16.694 3.744 31.498-6.409 36.064-24.733.711-2.856 56.248-277.603 56.499-279.508 2.732-20.756-11.008-35.787-30.508-33.374M172.801 163.357c-43.006 21.971-78.247 40.005-78.314 40.076-.106.114 35.348 101.725 36.374 104.246 1.625 3.995 5.072 9.427 7.384 11.636l.638.61 12.62-51.149c14.199-57.55 12.922-52.966 15.534-55.763 2.695-2.885 82.42-87.639 83.283-88.536.469-.488.812-.927.763-.976-.049-.05-35.276 17.886-78.282 39.856m2.93 104.195c-.361 1.353-15.206 61.571-15.206 61.682 0 .162 3.401-.113 5.13-.415 5.738-1.001 11.649-3.759 16.623-7.757 1.18-.948 28.223-25.774 28.416-26.086.075-.121-33.663-27.462-34.548-27.997-.151-.091-.289.099-.415.573" fill="#DFA233" fill-rule="evenodd"/></svg>